<?xml version="1.0" standalone="no"?><!DOCTYPE svg PUBLIC "-//W3C//DTD SVG 1.1//EN" "http://www.w3.org/Graphics/SVG/1.1/DTD/svg11.dtd"><svg t="1686822084451" class="icon" viewBox="0 0 1024 1024" version="1.1" xmlns="http://www.w3.org/2000/svg" p-id="2133" xmlns:xlink="http://www.w3.org/1999/xlink" width="200" height="200"><path d="M511.9488 94.1056c-230.4512 0-417.8944 187.4944-417.8944 417.9456s187.4432 417.8944 417.8944 417.8944c230.4512 0 417.9456-187.4432 417.9456-417.8944 0-230.5024-187.4432-417.9456-417.9456-417.9456z m0 779.4688c-199.3728 0-361.5744-162.2016-361.5744-361.5744 0-199.3728 162.2016-361.6256 361.5744-361.6256 199.424 0 361.6256 162.2528 361.6256 361.6256s-162.1504 361.5744-361.6256 361.5744z" p-id="2134"></path><path d="M721.1008 710.7584c-0.0512-2.7648-0.512-5.4784-1.3824-8.2944-9.472-66.816-50.944-124.3648-110.3872-154.88 32.2048-28.6208 50.8928-70.2464 50.8928-115.2512 0-85.504-65.1776-152.4224-148.3776-152.4224-83.2512 0-148.4288 66.9184-148.4288 152.4224 0 45.0048 18.7392 86.6816 50.9952 115.2512-60.2112 30.9248-101.8368 89.344-110.6944 157.1328-0.4096 1.9456-0.6656 3.7376-0.7168 5.5808-0.0512 0.4608-0.1536 0.9728-0.2048 1.4848l-0.8192 13.9264h3.84c4.8128 10.8032 15.616 18.3808 28.16 18.3808 16.9984 0 30.8224-13.9264 30.8224-31.0272l-0.2048-2.4576c0-1.3824-0.1536-2.816-0.4096-4.3008 12.1344-69.8368 73.1136-120.8832 145.664-121.7024 1.28 0.1024 2.816 0.1536 3.7888 0 74.24 0.8192 135.5776 53.248 146.432 124.8768-0.0512 0.6144-0.1024 1.28-0.1024 1.8944l0.2048 2.3552c0.3072 16.64 13.8752 30.0544 30.5152 30.0544 16.8448 0 30.5664-13.7728 30.5664-30.72l-0.1536-2.304z m-209.3056-185.6c-50.5344 0-91.648-41.6256-91.648-92.7744 0-51.0976 41.1136-92.7232 91.648-92.7232s91.648 41.6256 91.648 92.7232c0 51.0976-41.1136 92.7744-91.648 92.7744z" p-id="2135"></path></svg>