<?xml version="1.0" standalone="no"?><!DOCTYPE svg PUBLIC "-//W3C//DTD SVG 1.1//EN" "http://www.w3.org/Graphics/SVG/1.1/DTD/svg11.dtd"><svg t="1686822061008" class="icon" viewBox="0 0 1024 1024" version="1.1" xmlns="http://www.w3.org/2000/svg" p-id="1453" xmlns:xlink="http://www.w3.org/1999/xlink" width="200" height="200"><path d="M367.36 566.2208c-16.2816 0-29.44 13.1584-29.44 29.44s13.1584 29.44 29.44 29.44h117.76v88.32c0 16.2816 13.1584 29.44 29.44 29.44s29.44-13.1584 29.44-29.44v-88.32h117.76c16.2816 0 29.44-13.1584 29.44-29.44s-13.1584-29.44-29.44-29.44h-117.76v-58.88h117.76c16.2816 0 29.44-13.1584 29.44-29.44s-13.1584-29.44-29.44-29.44H559.104l-1.024-1.024L652.288 353.28c11.52-12.4928 10.7008-32-1.792-43.52a30.80704 30.80704 0 0 0-41.728 0l-94.208 94.208-94.208-94.208c-12.4928-11.52-32-10.7008-43.52 1.792a30.80704 30.80704 0 0 0 0 41.728L471.04 447.488l-1.024 0.9216H367.36A29.44 29.44 0 0 0 337.92 477.8496c0 16.2304 13.1584 29.3888 29.44 29.44h117.76v58.88c0 0.0512-117.76 0.0512-117.76 0.0512z" p-id="1454"></path><path d="M514.5088 94.1056c-230.4512 0-417.8944 187.4944-417.8944 417.9456s187.4432 417.8944 417.8944 417.8944c230.4512 0 417.9456-187.4432 417.9456-417.8944 0-230.5024-187.4432-417.9456-417.9456-417.9456z m0 779.4688c-199.3728 0-361.5744-162.2016-361.5744-361.5744 0-199.3728 162.2016-361.6256 361.5744-361.6256 199.424 0 361.6256 162.2528 361.6256 361.6256s-162.1504 361.5744-361.6256 361.5744z" p-id="1455"></path></svg>