<?xml version="1.0" standalone="no"?><!DOCTYPE svg PUBLIC "-//W3C//DTD SVG 1.1//EN" "http://www.w3.org/Graphics/SVG/1.1/DTD/svg11.dtd"><svg t="1686822106541" class="icon" viewBox="0 0 1024 1024" version="1.1" xmlns="http://www.w3.org/2000/svg" p-id="2405" xmlns:xlink="http://www.w3.org/1999/xlink" width="200" height="200"><path d="M752.896 191.232h-209.8176v1.28h208.9984l76.4416 163.2256h-284.9792v1.28h286.976l-77.6192-165.7856zM484.8128 357.0176h1.28v-1.28h-1.28v1.28z m0.8192-165.7856h-1.28v1.28h1.28v-1.28z m267.264 0h-209.8176v1.28h208.9984l76.4416 163.2256h-284.9792v1.28h286.976l-77.6192-165.7856zM484.8128 357.0176h1.28v-1.28h-1.28v1.28z m0.8192-165.7856h-1.28v1.28h1.28v-1.28z m267.264 0h-209.8176v1.28h208.9984l76.4416 163.2256h-284.9792v1.28h286.976l-77.6192-165.7856zM484.8128 357.0176h1.28v-1.28h-1.28v1.28z m0.8192-165.7856h-1.28v1.28h1.28v-1.28z" p-id="2406"></path><path d="M914.2272 403.3024l-0.1536-0.3584c-0.256-0.512-0.4608-1.024-0.7168-1.4336l-119.7056-247.7568a30.63808 30.63808 0 0 0-27.4944-17.3056H266.752c-11.7248 0-22.2208 6.5536-27.4432 17.0496l-119.808 242.8416c-6.656 11.776-10.1888 25.1392-10.1376 38.7072l-1.1264 373.0432c0.0512 43.7248 35.6864 79.36 79.4112 79.4112h652.6976c43.7248-0.0512 79.36-35.6352 79.4624-79.36l1.0752-372.9408c0-11.008-2.2528-21.76-6.656-31.8976z m-161.3312-212.0704l77.6192 165.7856h-286.976v-1.28h1.28l-0.4608-163.2256h-1.28v-1.28h209.8176z m-472.2176 1.28H484.352v-1.28h1.28v1.28h-1.28l0.4608 163.2256h1.28v1.28h-1.28v-1.28H202.5984L280.6784 192.512zM863.744 808.0896c0 10.0352-13.3632 23.3472-23.3984 23.3472H187.648c-10.0352 0-23.3472-13.312-23.3984-23.296L165.376 435.2c0-10.0352 13.312-23.3984 23.3984-23.3984h652.6976c6.656 0 18.2784 8.9088 21.4528 15.2576l0.256 0.4608c1.0752 2.4576 1.6384 5.0688 1.6384 7.5776l-1.0752 372.992z" p-id="2407"></path><path d="M484.352 191.232h1.28v1.28h-1.28zM484.8128 355.7376h1.28v1.28h-1.28zM543.0784 191.232h1.28v1.28h-1.28zM543.5392 355.7376h1.28v1.28h-1.28z" p-id="2408"></path><path d="M768.7168 577.8944H260.352c-16.5888 0-30.0032-13.4144-30.0032-30.0032s13.4144-30.0032 30.0032-30.0032h508.3648c16.5888 0 30.0032 13.4144 30.0032 30.0032s-13.4144 30.0032-30.0032 30.0032z" p-id="2409"></path></svg>