<?xml version="1.0" standalone="no"?><!DOCTYPE svg PUBLIC "-//W3C//DTD SVG 1.1//EN" "http://www.w3.org/Graphics/SVG/1.1/DTD/svg11.dtd"><svg t="1686822117288" class="icon" viewBox="0 0 1024 1024" version="1.1" xmlns="http://www.w3.org/2000/svg" p-id="2543" xmlns:xlink="http://www.w3.org/1999/xlink" width="200" height="200"><path d="M777.0624 908.032h-181.2992c-26.2144 0-47.616-21.4016-47.616-47.616v-182.1184H476.16v182.1184c0 26.2144-21.4016 47.616-47.616 47.616H244.736c-26.2144 0-47.616-21.4016-47.616-47.616v-298.8032H115.6608c-20.1216 0-37.5808-12.1856-44.5952-30.976-7.0144-18.688-1.6896-39.3216 13.312-52.3776L472.064 132.2496l0.2048-0.2048c25.6-22.1184 63.5904-21.2992 88.4224 1.6896l380.1088 345.6 0.2048 0.2048c14.2848 13.5168 18.8928 33.9968 11.6224 52.224a47.34976 47.34976 0 0 1-44.1856 30.0032h-83.712v298.7008c-0.0512 26.1632-21.4528 47.5648-47.6672 47.5648z m-170.9056-58.0096h160.512V503.7568h114.688l-359.9872-327.3216-0.1024-0.1024c-3.1232-2.9184-7.7824-3.0208-10.9056-0.4096l-367.3088 327.68h112.0768v346.4192h163.0208v-182.1184c0-26.2144 21.4016-47.616 47.616-47.616h92.7744c26.2144 0 47.616 21.4016 47.616 47.616v182.1184z" p-id="2544"></path></svg>