<?xml version="1.0" standalone="no"?><!DOCTYPE svg PUBLIC "-//W3C//DTD SVG 1.1//EN" "http://www.w3.org/Graphics/SVG/1.1/DTD/svg11.dtd"><svg t="1688527013528" class="icon" viewBox="0 0 1024 1024" version="1.1" xmlns="http://www.w3.org/2000/svg" p-id="2007" xmlns:xlink="http://www.w3.org/1999/xlink" width="200" height="200"><path d="M719.36 531.456c-5.632 5.632-12.8 8.704-19.968 8.704s-14.336-3.072-19.968-8.704l-138.752-138.752v306.176c0 15.872-12.8 28.672-28.672 28.672s-28.672-12.8-28.672-28.672V392.704l-138.752 138.752c-5.632 5.632-12.8 8.704-19.968 8.704s-14.336-3.072-19.968-8.704-8.704-12.8-8.704-19.968 3.072-14.336 8.704-19.968l187.392-187.392c5.12-4.608 12.288-7.68 19.968-7.68s14.848 2.56 19.968 7.68L719.36 491.52c11.776 11.264 11.776 28.672 0 39.936z" p-id="2008"></path><path d="M512 929.792c-230.4 0-417.792-187.392-417.792-417.792S281.6 94.208 512 94.208 929.792 281.6 929.792 512 742.4 929.792 512 929.792z m0-779.264c-199.168 0-361.472 162.304-361.472 361.472s162.304 361.472 361.472 361.472 361.472-162.304 361.472-361.472-162.304-361.472-361.472-361.472z" p-id="2009"></path></svg>