<?xml version="1.0" standalone="no"?><!DOCTYPE svg PUBLIC "-//W3C//DTD SVG 1.1//EN" "http://www.w3.org/Graphics/SVG/1.1/DTD/svg11.dtd"><svg t="1688528659978" class="icon" viewBox="0 0 1024 1024" version="1.1" xmlns="http://www.w3.org/2000/svg" p-id="2415" xmlns:xlink="http://www.w3.org/1999/xlink" width="200" height="200"><path d="M401.408 185.344v248.32H146.944V185.344h254.464m2.56-52.736H144.896c-27.648 0-50.688 22.528-50.688 50.688v252.928c0 27.648 22.528 50.688 50.688 50.688h259.072c27.648 0 50.688-22.528 50.688-50.688V182.784c0-27.648-23.04-50.176-50.688-50.176zM401.408 605.184v248.32H146.944v-248.32h254.464m2.56-52.736H144.896c-27.648 0-50.688 22.528-50.688 50.688v252.928c0 27.648 22.528 50.688 50.688 50.688h259.072c27.648 0 50.688-22.528 50.688-50.688v-252.416c0-28.672-23.04-51.2-50.688-51.2zM836.608 605.184v248.32h-254.464v-248.32h254.464m2.56-52.736h-259.072c-27.648 0-50.688 22.528-50.688 50.688v252.928c0 27.648 22.528 50.688 50.688 50.688h259.072c27.648 0 50.688-22.528 50.688-50.688v-252.416c-0.512-28.672-23.04-51.2-50.688-51.2zM890.368 275.968L742.4 128.512c-8.192-8.192-19.456-12.8-31.232-12.8s-23.04 4.608-31.232 12.8l-151.552 151.552c-17.408 17.408-17.408 45.568 0 62.976l147.968 147.968c8.192 8.192 19.456 12.8 31.232 12.8s23.04-4.608 31.232-12.8l151.552-151.552c17.408-17.92 17.408-46.08 0-63.488z m-182.784 171.008l-135.68-135.68 139.264-139.264 135.68 135.68-139.264 139.264z" p-id="2416"></path></svg>