<?xml version="1.0" standalone="no"?><!DOCTYPE svg PUBLIC "-//W3C//DTD SVG 1.1//EN" "http://www.w3.org/Graphics/SVG/1.1/DTD/svg11.dtd"><svg t="1686821364430" class="icon" viewBox="0 0 1024 1024" version="1.1" xmlns="http://www.w3.org/2000/svg" p-id="1317" xmlns:xlink="http://www.w3.org/1999/xlink" width="200" height="200"><path d="M198.0928 879.8208c-4.1472 0-8.2944-0.8192-12.1856-2.56a29.82912 29.82912 0 0 1-17.664-27.2384V219.4944c0-42.9056 34.2016-77.8752 76.1856-77.8752h540.16c41.984 0 76.1856 34.8672 76.1856 77.8752v630.528c0 11.776-6.8608 22.3744-17.5616 27.1872-10.7008 4.8128-23.296 2.9184-32.0512-4.864l-138.6496-122.9824-138.1376 122.9824a29.83424 29.83424 0 0 1-39.5776 0.1024l-139.3664-123.136-137.4208 122.9824a30.42304 30.42304 0 0 1-19.9168 7.5264z m157.184-195.1232c7.0144 0 14.08 2.5088 19.712 7.4752l139.5712 123.136 138.1376-123.0848a29.7216 29.7216 0 0 1 39.5776 0l114.0736 91.392V214.3232c0-10.0352-7.4752-18.2272-16.5888-18.2272H239.4112c-9.1136 0-16.5888 8.1408-16.5888 18.2272v568.9344l112.6912-90.9824c5.632-5.0688 12.6464-7.5776 19.7632-7.5776z" p-id="1318"></path><path d="M680.8064 388.4544H348.3136c-17.2544 0-31.1808-13.9264-31.1808-31.1808 0-17.2544 13.9264-31.1808 31.1808-31.1808h332.4928c17.2544 0 31.1808 13.9264 31.1808 31.1808 0 17.2032-13.9264 31.1808-31.1808 31.1808z m0 180.48H348.3136c-17.2544 0-31.1808-13.9264-31.1808-31.1808 0-17.2544 13.9264-31.1808 31.1808-31.1808h332.4928c17.2544 0 31.1808 13.9264 31.1808 31.1808 0 17.2544-13.9264 31.1808-31.1808 31.1808z" p-id="1319"></path></svg>