<?xml version="1.0" standalone="no"?><!DOCTYPE svg PUBLIC "-//W3C//DTD SVG 1.1//EN" "http://www.w3.org/Graphics/SVG/1.1/DTD/svg11.dtd"><svg t="1688460664264" class="icon" viewBox="0 0 1024 1024" version="1.1" xmlns="http://www.w3.org/2000/svg" p-id="3016" xmlns:xlink="http://www.w3.org/1999/xlink" width="200" height="200"><path d="M894.976 235.52l-154.112-150.528c-12.8-12.8-29.696-19.456-47.616-19.456H203.776c-52.736 0.512-94.72 43.008-94.72 95.744v683.008c0 52.736 42.496 95.232 94.72 95.232h616.448c52.736 0 95.232-43.008 95.232-95.232V284.672c0-18.432-7.68-35.84-20.48-49.152z m-36.352 619.008c0 15.36-12.8 28.16-28.16 28.16H193.536c-15.36 0-27.648-12.8-27.648-28.16V150.528c0-15.36 12.288-28.16 27.648-28.16l463.36 0.512v129.024c0 55.808 34.816 90.624 90.112 90.624h111.104l0.512 512z m-10.24-568.32H747.52c-18.432 0-33.28-14.336-33.792-32.768V142.336l144.896 141.824-10.24 2.048z" p-id="3017"></path><path d="M660.992 488.448H363.008c-16.384 0-29.696 13.312-29.696 29.696 0 16.896 13.312 29.696 29.696 29.696h297.984c16.384 0 29.696-13.312 29.696-29.696s-13.312-29.696-29.696-29.696z m0 179.2H363.008c-16.384 0-29.696 13.312-29.696 29.696 0 16.384 13.312 29.696 29.696 29.696H660.48c16.384 0 29.696-13.312 29.696-29.696 0.512-16.384-12.8-29.696-29.184-29.696z" p-id="3018"></path></svg>