<?xml version="1.0" standalone="no"?><!DOCTYPE svg PUBLIC "-//W3C//DTD SVG 1.1//EN" "http://www.w3.org/Graphics/SVG/1.1/DTD/svg11.dtd"><svg t="1692321564324" class="icon" viewBox="0 0 1024 1024" version="1.1" xmlns="http://www.w3.org/2000/svg" p-id="4008" xmlns:xlink="http://www.w3.org/1999/xlink" width="32" height="32"><path d="M800 128A96 96 0 0 1 896 224v384a96 96 0 0 1-96 96H472.96L384 896l-87.936-192H224a96 96 0 0 1-95.552-86.784L128 608v-384A96 96 0 0 1 224 128z m32 64H192v448h145.344l46.912 103.488L432.128 640H832V192zM512 448v64H320V448h192z m128-128v64H320V320h320z" p-id="4009"></path></svg>