<?xml version="1.0" standalone="no"?><!DOCTYPE svg PUBLIC "-//W3C//DTD SVG 1.1//EN" "http://www.w3.org/Graphics/SVG/1.1/DTD/svg11.dtd"><svg t="1688527809353" class="icon" viewBox="0 0 1024 1024" version="1.1" xmlns="http://www.w3.org/2000/svg" p-id="2143" xmlns:xlink="http://www.w3.org/1999/xlink" width="200" height="200"><path d="M608.256 142.848l-3.584-1.024-59.392 101.376 96.256 400.384c1.024 3.584 0 7.68-2.56 10.752l-117.76 137.216c-5.12 5.632-14.848 5.632-19.968 0l-117.76-137.216c-2.56-3.072-3.584-6.656-2.56-10.752l96.256-400.384-59.392-101.376-3.584 1.024C208.896 192 72.704 388.096 97.792 599.04c22.528 189.44 176.64 342.016 366.08 363.008 16.384 1.536 32.256 2.56 47.616 2.56 229.888 0 416.768-186.88 416.768-416.768-0.512-193.536-131.584-359.936-320-404.992zM511.488 916.48c-13.824 0-28.16-1.024-41.984-2.56-41.472-4.608-80.896-15.872-118.784-34.304-36.352-17.92-69.632-41.472-98.816-70.144-29.184-28.672-52.736-61.952-71.168-98.304-18.432-37.376-30.208-76.8-35.328-118.272-5.632-47.104-2.56-93.696 9.216-138.752 11.264-43.008 30.208-82.944 56.32-119.808 45.568-63.488 110.592-112.128 184.32-136.192l30.72 52.736-91.648 381.44c-4.608 18.944 0 38.912 12.8 53.248l117.76 136.704c11.776 13.824 28.672 21.504 46.592 21.504s34.816-7.68 46.592-21.504l117.76-137.216c12.8-14.848 17.408-34.816 12.8-53.248l-92.16-380.928 30.72-52.736c28.672 9.728 56.32 22.528 81.92 39.424 34.304 22.016 64.512 49.152 89.6 80.896 25.6 31.744 45.568 67.584 59.392 105.984 14.336 39.424 21.504 81.408 21.504 123.904 0 49.664-9.728 97.792-28.672 143.36-18.944 44.032-45.568 83.456-79.36 117.248-33.792 33.792-73.216 60.416-117.248 78.848-44.544 18.944-93.184 28.672-142.848 28.672z" p-id="2144"></path><path d="M585.728 118.272l-72.704-53.248-79.36 53.248 78.848 115.712 73.216-115.712z" p-id="2145"></path></svg>