<?xml version="1.0" standalone="no"?><!DOCTYPE svg PUBLIC "-//W3C//DTD SVG 1.1//EN" "http://www.w3.org/Graphics/SVG/1.1/DTD/svg11.dtd"><svg t="1688459378353" class="icon" viewBox="0 0 1024 1024" version="1.1" xmlns="http://www.w3.org/2000/svg" p-id="1657" xmlns:xlink="http://www.w3.org/1999/xlink" width="200" height="200"><path d="M547.328 86.528c-230.4 0-417.792 187.392-417.792 417.792s187.392 417.792 417.792 417.792 417.792-187.392 417.792-417.792-186.88-417.792-417.792-417.792z m0 779.264c-199.168 0-361.472-162.304-361.472-361.472S348.16 142.848 547.328 142.848s361.472 162.304 361.472 361.472-161.792 361.472-361.472 361.472z" p-id="1658"></path><path d="M763.392 504.832c0 7.68-3.072 14.336-8.704 19.968l-187.392 187.392c-5.12 4.608-12.288 7.68-19.968 7.68s-14.848-2.56-19.968-7.68l-187.392-187.392c-11.264-11.264-11.264-28.672 0-39.936 5.632-5.632 12.8-8.704 19.968-8.704 7.68 0 14.336 3.072 19.968 8.704l138.752 138.752V317.44c0-15.872 12.8-28.672 28.672-28.672s28.672 12.8 28.672 28.672v306.176l138.752-138.752c5.632-5.632 12.8-8.704 19.968-8.704s14.336 3.072 19.968 8.704 8.704 12.8 8.704 19.968z" p-id="1659"></path></svg>