<?xml version="1.0" standalone="no"?><!DOCTYPE svg PUBLIC "-//W3C//DTD SVG 1.1//EN" "http://www.w3.org/Graphics/SVG/1.1/DTD/svg11.dtd"><svg t="1686822072211" class="icon" viewBox="0 0 1024 1024" version="1.1" xmlns="http://www.w3.org/2000/svg" p-id="1725" xmlns:xlink="http://www.w3.org/1999/xlink" width="200" height="200"><path d="M514.5088 925.2864c-10.0352 0-19.9168-1.6384-28.5184-5.0176-101.2224-39.0656-189.1328-101.888-261.2736-186.7264-43.4688-51.1488-66.9696-114.8416-69.888-189.3376-1.3824-34.9184-1.024-70.1952-0.7168-104.2432 0.1536-13.7216 0.256-27.392 0.3072-41.1136-0.2048-1.4336-0.3584-2.8672-0.3584-4.352 0-14.7456 0.0512-29.4912 0.1024-44.2368 0.1024-35.5328 0.256-72.2944-0.4096-108.2368s17.4592-59.4432 52.2752-68.0448c46.0288-11.3152 92.0064-22.8352 137.984-34.4064 49.7664-12.4928 101.12-25.344 151.808-37.7856 12.288-3.0208 26.4192-2.6112 42.0352 1.2288 92.5184 22.5792 186.5216 45.9776 277.3504 68.608l1.9968 0.4608c45.568 11.3664 58.7264 28.3136 58.7264 75.5712l0.0512 73.5744c0.0512 65.9968 0.1024 134.2976-0.1024 201.5232-0.3072 109.7216-44.3392 201.5744-130.816 272.896-55.2448 45.5168-120.8832 96.4096-201.3696 124.8256-9.216 3.2256-19.3024 4.8128-29.184 4.8128zM212.3264 390.0928c0.256 1.4336 0.3584 2.9184 0.3584 4.352 0 15.36-0.1536 30.72-0.3072 46.0288-0.3584 33.3824-0.6656 67.84 0.6656 101.376 2.4064 61.184 21.2992 112.9472 56.1152 153.9072 65.7408 77.3632 145.7152 134.6048 237.7728 170.1376 3.584 1.4336 11.6224 1.536 17.2544-0.4608 71.5776-25.2416 132.352-72.5504 183.6544-114.8928 73.5232-60.5696 109.3632-135.168 109.6192-228.0448 0.2048-67.072 0.1536-135.2704 0.1024-201.2672l-0.0512-73.6256c0-8.0896-0.3072-12.544-0.6144-14.8992-2.1504-0.8704-6.1952-2.2016-13.8752-4.096l-1.9968-0.4608c-90.7776-22.6304-184.6272-46.0288-277.0432-68.5568-7.1168-1.7408-12.1856-1.7408-14.336-1.2288-50.5344 12.3904-101.888 25.2416-151.5008 37.6832-45.2608 11.3664-92.1088 23.1424-138.24 34.4576-5.2736 1.3312-7.0144 2.6624-7.1168 2.7648 0.0512 0-0.8704 2.048-0.768 7.6288 0.6144 36.5568 0.4608 73.6256 0.4096 109.4656 0 13.312-0.0512 26.5216-0.1024 39.7312z" p-id="1726"></path><path d="M515.7376 772.0448c-2.4576 0-4.9152-0.3072-7.3728-1.024-12.1344-3.328-20.48-14.336-20.5312-26.9312v-150.0672h-13.6192c-6.7072 0-13.568 0.0512-20.4288 0.0512-15.4624 0.1024-31.5392 0.1536-47.4624-0.2048-23.7568-0.5632-43.1104-10.6496-53.0432-27.6992-9.6256-16.4864-9.1136-37.1712 1.3312-56.7808 31.3344-58.6752 63.7952-117.9648 95.1296-175.3088 12.1344-22.1696 24.2688-44.3392 36.352-66.56 5.8368-10.7008 17.92-16.384 29.8496-14.0288l5.12 1.024c13.056 2.56 22.528 14.0288 22.528 27.392v148.4288h3.7376c23.1936 0 45.7728-0.0512 68.3008 0.0512 36.9152 0.1024 53.4528 14.9504 60.8768 27.392 7.3216 12.3904 12.4416 33.8944-4.9664 65.9968-45.2096 83.1488-86.3744 158.2592-131.84 234.6496a28.22144 28.22144 0 0 1-23.9616 13.6192z m-10.24-233.8304a27.904 27.904 0 0 1 27.904 27.904l-5.12 115.0464c26.0096-46.08 72.192-134.0928 99.328-184.064 2.4064-4.4544 3.6864-7.7312 4.352-9.8816-2.304-0.512-5.9392-1.024-11.3664-1.024-22.528-0.0512-50.1248-0.0512-73.2672-0.0512h-21.4016a27.904 27.904 0 0 1-27.904-27.904V350.0032c-27.904 50.944-71.7824 133.9392-99.3792 185.6512-0.3584 0.768-0.7168 1.3824-0.9216 1.8944 1.1776 0.256 2.7136 0.4608 4.7104 0.512 15.1552 0.3072 35.9424 0.256 51.0464 0.2048 6.8608-0.0512 13.7216-0.1024 20.6848-0.0512h31.3344z" p-id="1727"></path></svg>