<?xml version="1.0" standalone="no"?><!DOCTYPE svg PUBLIC "-//W3C//DTD SVG 1.1//EN" "http://www.w3.org/Graphics/SVG/1.1/DTD/svg11.dtd"><svg t="1686822074907" class="icon" viewBox="0 0 1024 1024" version="1.1" xmlns="http://www.w3.org/2000/svg" p-id="1861" xmlns:xlink="http://www.w3.org/1999/xlink" width="200" height="200"><path d="M918.6304 479.6416l-173.9776-304.1792a65.64352 65.64352 0 0 0-56.6784-32.9216H340.7872c-23.3984 0-45.1584 12.6464-56.7296 32.9728l-173.568 304.1792c-11.3664 19.968-11.3664 44.7488 0 64.7168l173.568 304.1792c11.5712 20.3264 33.3312 32.9216 56.7296 32.9216h347.136c23.3984 0 45.1072-12.5952 56.7296-32.8704l173.9776-304.1792c11.3664-19.968 11.3664-44.8512 0-64.8192zM341.504 820.0704l-177.9712-308.0192L336.384 204.032h350.7712l178.3296 308.0192-178.3296 308.0192H341.504z" p-id="1862"></path><path d="M514.56 358.4c-84.7872-0.0512-153.6 68.7104-153.6512 153.5488-0.0512 84.8384 68.7104 153.6512 153.5488 153.6512h0.1024c84.8384 0 153.6-68.7616 153.6-153.6s-68.7616-153.6-153.6-153.6z m0 58.0096c47.104 0 95.5904 48.384 95.5904 95.5392 0 47.104-48.384 95.5904-95.5392 95.5904h-0.0512c-47.104 0-95.5904-48.4352-95.5904-95.5904s48.4864-95.5392 95.5904-95.5392z" p-id="1863"></path></svg>