<?xml version="1.0" standalone="no"?><!DOCTYPE svg PUBLIC "-//W3C//DTD SVG 1.1//EN" "http://www.w3.org/Graphics/SVG/1.1/DTD/svg11.dtd"><svg t="1686822089444" class="icon" viewBox="0 0 1024 1024" version="1.1" xmlns="http://www.w3.org/2000/svg" p-id="2269" xmlns:xlink="http://www.w3.org/1999/xlink" width="200" height="200"><path d="M402.2784 808.7552v4.9152c0.4608-1.3824 0.9216-2.816 1.4336-4.3008-0.4608-0.2048-1.024-0.4096-1.4336-0.6144z m218.0096 0.6144c0.512 1.4848 0.9728 2.9184 1.4336 4.3008v-4.9152c-0.4608 0.2048-0.9728 0.4096-1.4336 0.6144z m-218.0096-0.6144v4.9152c0.4608-1.3824 0.9216-2.816 1.4336-4.3008-0.4608-0.2048-1.024-0.4096-1.4336-0.6144z m218.0096 0.6144c0.512 1.4848 0.9728 2.9184 1.4336 4.3008v-4.9152c-0.4608 0.2048-0.9728 0.4096-1.4336 0.6144z m-218.0096-0.6144v4.9152c0.4608-1.3824 0.9216-2.816 1.4336-4.3008-0.4608-0.2048-1.024-0.4096-1.4336-0.6144z m218.0096 0.6144c0.512 1.4848 0.9728 2.9184 1.4336 4.3008v-4.9152c-0.4608 0.2048-0.9728 0.4096-1.4336 0.6144z" p-id="2270"></path><path d="M828.672 627.9168v-0.0512c5.12-19.9168 5.12-44.544 5.12-64.3584 0-120.4736-66.8672-229.9392-174.592-286.0032v-13.2096c0-85.3504-65.4336-149.7088-152.2176-149.7088-83.9168 0-147.2 66.4576-147.2 154.624v13.056c-106.1376 50.432-174.592 160.6144-174.592 281.2416 0 24.832 0 44.4416 5.0688 64.3584l0.0512 0.3584c-49.5104 27.0336-79.9744 76.8-79.9744 131.4816 0 85.3504 65.4336 149.7088 152.2176 149.7088 43.52 0 85.7088-18.6368 113.2544-49.408l0.6144 0.2048c44.288 16.384 89.856 24.6784 135.5264 24.6784 49.92 0 95.488-9.9328 135.3216-29.44 26.6752 33.9968 68.352 53.9648 114.1248 53.9648 86.784 0 152.2176-64.3584 152.2176-149.7088 0.0512-56.6272-31.5904-105.4208-84.9408-131.7888zM511.9488 173.6704c53.6064 0 97.2288 42.8544 97.2288 95.5392 0 52.6848-43.6224 95.5392-97.2288 95.5392-53.6064 0-97.1776-42.8544-97.1776-95.5392 0-52.6848 43.5712-95.5392 97.1776-95.5392zM262.5536 855.2448c-53.6064 0-97.1776-42.8544-97.1776-95.5392s43.5712-95.5392 97.1776-95.5392 97.2288 42.8544 97.2288 95.5392-43.5712 95.5392-97.2288 95.5392z m139.7248-41.5744v-4.9152c0.4608 0.2048 0.9728 0.4096 1.4336 0.6144-0.5632 1.4848-1.024 2.9184-1.4336 4.3008z m219.4432 0c-0.4608-1.3824-0.9216-2.816-1.4336-4.3008 0.4608-0.2048 0.9728-0.4096 1.4336-0.6144v4.9152z m-12.544-53.9648c0 14.592 2.6624 30.7712 7.9872 48.1792-38.5024 15.7696-71.0144 22.8352-105.216 22.8352-34.1504 0-66.6624-7.0656-105.1648-22.8352 5.3248-17.408 7.9872-33.5872 7.9872-48.1792 0-85.3504-65.4336-149.7088-152.2176-149.7088-7.4752 0-12.3392 0-18.5856 2.048-3.7888-16.9472-3.7888-30.3616-3.7888-48.5376 0-93.4912 51.968-182.016 135.7824-231.68 20.7872 52.224 75.0592 87.0912 135.9872 87.0912 60.0576 0 114.9952-34.0992 140.7488-87.1424 80.9472 50.8416 131.072 139.3664 131.072 231.7312 0 18.8928 0 32.768-4.2496 46.4896h-18.1248c-86.784 0-152.2176 64.3584-152.2176 149.7088z m152.2176 95.5392c-53.6064 0-97.2288-42.8544-97.2288-95.5392s43.6224-95.5392 97.2288-95.5392c53.6064 0 97.1776 42.8544 97.1776 95.5392s-43.5712 95.5392-97.1776 95.5392z" p-id="2271"></path></svg>