<?xml version="1.0" standalone="no"?><!DOCTYPE svg PUBLIC "-//W3C//DTD SVG 1.1//EN" "http://www.w3.org/Graphics/SVG/1.1/DTD/svg11.dtd"><svg t="1686822069186" class="icon" viewBox="0 0 1024 1024" version="1.1" xmlns="http://www.w3.org/2000/svg" p-id="1589" xmlns:xlink="http://www.w3.org/1999/xlink" width="200" height="200"><path d="M820.992 481.2288h-118.1696V151.3472c0-28.0576-22.9376-50.8928-51.2-50.8928H182.8352c-28.2112 0-51.1488 22.8352-51.1488 50.8928v713.6768c0 28.0576 22.9376 50.8928 51.1488 50.8928h638.1568c28.2624 0 51.2-22.8352 51.2-50.8928v-332.8512c0-28.1088-22.9376-50.944-51.2-50.944z m-171.3664 379.0336H187.648V156.1088h461.9264v704.1536z m163.84-5.2224h-110.6432v-312.9344h110.6432V855.04z" p-id="1590"></path><path d="M518.1952 345.088c0 17.664-12.3392 29.952-29.952 29.952H309.3504c-15.104 0-29.952-14.848-29.952-29.952 0-17.6128 12.3392-29.952 29.952-29.952h178.8928c17.6128 0 29.952 12.3392 29.952 29.952zM426.2912 499.0976c0 17.664-12.3392 29.952-30.0032 29.952H309.3504c-15.104 0-29.952-14.7968-29.952-29.952 0-17.6128 12.3392-29.952 29.952-29.952H396.288c17.664 0 30.0032 12.3392 30.0032 29.952z" p-id="1591"></path></svg>